<mxfile host="Electron" agent="Mozilla/5.0 (Macintosh; Intel Mac OS X 10_15_7) AppleWebKit/537.36 (KHTML, like Gecko) draw.io/26.2.2 Chrome/134.0.6998.178 Electron/35.1.2 Safari/537.36" version="26.2.2">
  <diagram name="Page-1" id="LC5dHPAP5_1PirY3vbiF">
    <mxGraphModel dx="1108" dy="859" grid="1" gridSize="10" guides="1" tooltips="1" connect="1" arrows="1" fold="1" page="1" pageScale="1" pageWidth="850" pageHeight="1100" background="#FFFFFF" math="0" shadow="0">
      <root>
        <mxCell id="0" />
        <mxCell id="1" parent="0" />
        <mxCell id="YS-uZJQG7iNcBauW46sK-1" value="" style="rounded=0;whiteSpace=wrap;html=1;hachureGap=4;fontFamily=Architects Daughter;fontSource=https%3A%2F%2Ffonts.googleapis.com%2Fcss%3Ffamily%3DArchitects%2BDaughter;strokeColor=#647687;" parent="1" vertex="1">
          <mxGeometry x="40" y="30" width="240" height="290" as="geometry" />
        </mxCell>
        <mxCell id="YS-uZJQG7iNcBauW46sK-2" value="" style="rounded=0;whiteSpace=wrap;html=1;hachureGap=4;fontFamily=Architects Daughter;fontSource=https%3A%2F%2Ffonts.googleapis.com%2Fcss%3Ffamily%3DArchitects%2BDaughter;strokeColor=#647687;" parent="1" vertex="1">
          <mxGeometry x="30" y="40" width="240" height="290" as="geometry" />
        </mxCell>
        <mxCell id="YS-uZJQG7iNcBauW46sK-3" value="Application" style="rounded=0;whiteSpace=wrap;html=1;hachureGap=4;fontFamily=Architects Daughter;fontSource=https%3A%2F%2Ffonts.googleapis.com%2Fcss%3Ffamily%3DArchitects%2BDaughter;fontSize=20;fillColor=#647687;strokeColor=#647687;fontStyle=1;fontColor=#ffffff;" parent="1" vertex="1">
          <mxGeometry x="30" y="290" width="240" height="40" as="geometry" />
        </mxCell>
        <mxCell id="YS-uZJQG7iNcBauW46sK-4" value="&amp;nbsp;Data storage" style="rounded=0;whiteSpace=wrap;html=1;hachureGap=4;fontFamily=Architects Daughter;fontSource=https%3A%2F%2Ffonts.googleapis.com%2Fcss%3Ffamily%3DArchitects%2BDaughter;align=left;verticalAlign=top;fillColor=#f5f5f5;fontColor=#333333;strokeColor=#666666;fontSize=14;" parent="1" vertex="1">
          <mxGeometry x="40" y="170" width="220" height="110" as="geometry" />
        </mxCell>
        <mxCell id="YS-uZJQG7iNcBauW46sK-5" value="&amp;nbsp;Application Logic" style="rounded=0;whiteSpace=wrap;html=1;hachureGap=4;fontFamily=Architects Daughter;fontSource=https%3A%2F%2Ffonts.googleapis.com%2Fcss%3Ffamily%3DArchitects%2BDaughter;align=left;verticalAlign=top;fillColor=#f5f5f5;fontColor=#333333;strokeColor=#666666;fontSize=14;" parent="1" vertex="1">
          <mxGeometry x="40" y="50" width="220" height="110" as="geometry" />
        </mxCell>
        <mxCell id="YS-uZJQG7iNcBauW46sK-6" value="" style="shape=cylinder3;whiteSpace=wrap;html=1;boundedLbl=1;backgroundOutline=1;size=15;sketch=1;hachureGap=4;jiggle=2;curveFitting=1;fontFamily=Architects Daughter;fontSource=https%3A%2F%2Ffonts.googleapis.com%2Fcss%3Ffamily%3DArchitects%2BDaughter;fillColor=#dae8fc;strokeColor=#6c8ebf;strokeWidth=1.9685;" parent="1" vertex="1">
          <mxGeometry x="120" y="195" width="60" height="80" as="geometry" />
        </mxCell>
        <mxCell id="YS-uZJQG7iNcBauW46sK-19" value="" style="shape=rect;html=1;rounded=1;strokeWidth=2;whiteSpace=wrap;sketch=1;hachureGap=4;jiggle=2;curveFitting=1;fontFamily=Architects Daughter;fontSource=https%3A%2F%2Ffonts.googleapis.com%2Fcss%3Ffamily%3DArchitects%2BDaughter;fillColor=#dae8fc;strokeColor=#6c8ebf;aspect=fixed;" parent="1" vertex="1">
          <mxGeometry x="46.379999999999995" y="89.25" width="47.244" height="31.5" as="geometry" />
        </mxCell>
        <mxCell id="YS-uZJQG7iNcBauW46sK-20" value="" style="shape=rect;html=1;strokeWidth=2;whiteSpace=wrap;sketch=1;hachureGap=4;jiggle=2;curveFitting=1;fontFamily=Architects Daughter;fontSource=https%3A%2F%2Ffonts.googleapis.com%2Fcss%3Ffamily%3DArchitects%2BDaughter;fillColor=#dae8fc;strokeColor=#6c8ebf;aspect=fixed;" parent="1" vertex="1">
          <mxGeometry x="126.38" y="89.25" width="47.244" height="31.5" as="geometry" />
        </mxCell>
        <mxCell id="YS-uZJQG7iNcBauW46sK-21" value="" style="shape=rect;html=1;rounded=1;strokeWidth=2;whiteSpace=wrap;sketch=1;hachureGap=4;jiggle=2;curveFitting=1;fontFamily=Architects Daughter;fontSource=https%3A%2F%2Ffonts.googleapis.com%2Fcss%3Ffamily%3DArchitects%2BDaughter;fillColor=#dae8fc;strokeColor=#6c8ebf;aspect=fixed;" parent="1" vertex="1">
          <mxGeometry x="206.38" y="89.25" width="47.244" height="31.5" as="geometry" />
        </mxCell>
        <mxCell id="YS-uZJQG7iNcBauW46sK-22" value="" style="edgeStyle=elbowEdgeStyle;html=1;elbow=horizontal;endArrow=open;labelBackgroundColor=none;strokeWidth=2;endSize=12;rounded=0;sketch=1;hachureGap=4;jiggle=2;curveFitting=1;fontFamily=Architects Daughter;fontSource=https%3A%2F%2Ffonts.googleapis.com%2Fcss%3Ffamily%3DArchitects%2BDaughter;fillColor=#dae8fc;strokeColor=#6c8ebf;" parent="1" source="YS-uZJQG7iNcBauW46sK-19" target="YS-uZJQG7iNcBauW46sK-20" edge="1">
          <mxGeometry relative="1" as="geometry" />
        </mxCell>
        <mxCell id="YS-uZJQG7iNcBauW46sK-23" value="" style="edgeStyle=elbowEdgeStyle;html=1;elbow=horizontal;endArrow=open;labelBackgroundColor=none;strokeWidth=2;endSize=12;rounded=0;sketch=1;hachureGap=4;jiggle=2;curveFitting=1;fontFamily=Architects Daughter;fontSource=https%3A%2F%2Ffonts.googleapis.com%2Fcss%3Ffamily%3DArchitects%2BDaughter;fillColor=#dae8fc;strokeColor=#6c8ebf;" parent="1" source="YS-uZJQG7iNcBauW46sK-20" target="YS-uZJQG7iNcBauW46sK-21" edge="1">
          <mxGeometry relative="1" as="geometry" />
        </mxCell>
        <mxCell id="YS-uZJQG7iNcBauW46sK-24" value="" style="rounded=0;whiteSpace=wrap;html=1;hachureGap=4;fontFamily=Architects Daughter;fontSource=https%3A%2F%2Ffonts.googleapis.com%2Fcss%3Ffamily%3DArchitects%2BDaughter;strokeColor=#647687;" parent="1" vertex="1">
          <mxGeometry x="500" y="30" width="240" height="290" as="geometry" />
        </mxCell>
        <mxCell id="YS-uZJQG7iNcBauW46sK-25" value="" style="rounded=0;whiteSpace=wrap;html=1;hachureGap=4;fontFamily=Architects Daughter;fontSource=https%3A%2F%2Ffonts.googleapis.com%2Fcss%3Ffamily%3DArchitects%2BDaughter;strokeColor=#647687;" parent="1" vertex="1">
          <mxGeometry x="490" y="40" width="240" height="290" as="geometry" />
        </mxCell>
        <mxCell id="YS-uZJQG7iNcBauW46sK-26" value="Application" style="rounded=0;whiteSpace=wrap;html=1;hachureGap=4;fontFamily=Architects Daughter;fontSource=https%3A%2F%2Ffonts.googleapis.com%2Fcss%3Ffamily%3DArchitects%2BDaughter;fontSize=20;fillColor=#647687;strokeColor=#647687;fontStyle=1;fontColor=#ffffff;" parent="1" vertex="1">
          <mxGeometry x="490" y="290" width="240" height="40" as="geometry" />
        </mxCell>
        <mxCell id="YS-uZJQG7iNcBauW46sK-27" value="&amp;nbsp;Data storage" style="rounded=0;whiteSpace=wrap;html=1;hachureGap=4;fontFamily=Architects Daughter;fontSource=https%3A%2F%2Ffonts.googleapis.com%2Fcss%3Ffamily%3DArchitects%2BDaughter;align=left;verticalAlign=top;fillColor=#f5f5f5;fontColor=#333333;strokeColor=#666666;fontSize=14;" parent="1" vertex="1">
          <mxGeometry x="500" y="170" width="220" height="110" as="geometry" />
        </mxCell>
        <mxCell id="YS-uZJQG7iNcBauW46sK-28" value="&amp;nbsp;Application Logic" style="rounded=0;whiteSpace=wrap;html=1;hachureGap=4;fontFamily=Architects Daughter;fontSource=https%3A%2F%2Ffonts.googleapis.com%2Fcss%3Ffamily%3DArchitects%2BDaughter;align=left;verticalAlign=top;fillColor=#f5f5f5;fontColor=#333333;strokeColor=#666666;fontSize=14;" parent="1" vertex="1">
          <mxGeometry x="500" y="50" width="220" height="110" as="geometry" />
        </mxCell>
        <mxCell id="YS-uZJQG7iNcBauW46sK-29" value="" style="shape=cylinder3;whiteSpace=wrap;html=1;boundedLbl=1;backgroundOutline=1;size=15;sketch=1;hachureGap=4;jiggle=2;curveFitting=1;fontFamily=Architects Daughter;fontSource=https%3A%2F%2Ffonts.googleapis.com%2Fcss%3Ffamily%3DArchitects%2BDaughter;fillColor=#dae8fc;strokeColor=#6c8ebf;strokeWidth=1.9685;" parent="1" vertex="1">
          <mxGeometry x="580" y="195" width="60" height="80" as="geometry" />
        </mxCell>
        <mxCell id="YS-uZJQG7iNcBauW46sK-30" value="" style="shape=rect;html=1;rounded=1;strokeWidth=2;whiteSpace=wrap;sketch=1;hachureGap=4;jiggle=2;curveFitting=1;fontFamily=Architects Daughter;fontSource=https%3A%2F%2Ffonts.googleapis.com%2Fcss%3Ffamily%3DArchitects%2BDaughter;fillColor=#dae8fc;strokeColor=#6c8ebf;aspect=fixed;" parent="1" vertex="1">
          <mxGeometry x="506.38" y="89.25" width="47.244" height="31.5" as="geometry" />
        </mxCell>
        <mxCell id="YS-uZJQG7iNcBauW46sK-31" value="" style="shape=rect;html=1;strokeWidth=2;whiteSpace=wrap;sketch=1;hachureGap=4;jiggle=2;curveFitting=1;fontFamily=Architects Daughter;fontSource=https%3A%2F%2Ffonts.googleapis.com%2Fcss%3Ffamily%3DArchitects%2BDaughter;fillColor=#dae8fc;strokeColor=#6c8ebf;aspect=fixed;" parent="1" vertex="1">
          <mxGeometry x="586.38" y="89.25" width="47.244" height="31.5" as="geometry" />
        </mxCell>
        <mxCell id="YS-uZJQG7iNcBauW46sK-32" value="" style="shape=rect;html=1;rounded=1;strokeWidth=2;whiteSpace=wrap;sketch=1;hachureGap=4;jiggle=2;curveFitting=1;fontFamily=Architects Daughter;fontSource=https%3A%2F%2Ffonts.googleapis.com%2Fcss%3Ffamily%3DArchitects%2BDaughter;fillColor=#dae8fc;strokeColor=#6c8ebf;aspect=fixed;" parent="1" vertex="1">
          <mxGeometry x="666.38" y="89.25" width="47.244" height="31.5" as="geometry" />
        </mxCell>
        <mxCell id="YS-uZJQG7iNcBauW46sK-33" value="" style="edgeStyle=elbowEdgeStyle;html=1;elbow=horizontal;endArrow=open;labelBackgroundColor=none;strokeWidth=2;endSize=12;rounded=0;sketch=1;hachureGap=4;jiggle=2;curveFitting=1;fontFamily=Architects Daughter;fontSource=https%3A%2F%2Ffonts.googleapis.com%2Fcss%3Ffamily%3DArchitects%2BDaughter;fillColor=#dae8fc;strokeColor=#6c8ebf;" parent="1" source="YS-uZJQG7iNcBauW46sK-30" target="YS-uZJQG7iNcBauW46sK-31" edge="1">
          <mxGeometry relative="1" as="geometry" />
        </mxCell>
        <mxCell id="YS-uZJQG7iNcBauW46sK-34" value="" style="edgeStyle=elbowEdgeStyle;html=1;elbow=horizontal;endArrow=open;labelBackgroundColor=none;strokeWidth=2;endSize=12;rounded=0;sketch=1;hachureGap=4;jiggle=2;curveFitting=1;fontFamily=Architects Daughter;fontSource=https%3A%2F%2Ffonts.googleapis.com%2Fcss%3Ffamily%3DArchitects%2BDaughter;fillColor=#dae8fc;strokeColor=#6c8ebf;" parent="1" source="YS-uZJQG7iNcBauW46sK-31" target="YS-uZJQG7iNcBauW46sK-32" edge="1">
          <mxGeometry relative="1" as="geometry" />
        </mxCell>
        <mxCell id="YS-uZJQG7iNcBauW46sK-38" value="" style="endArrow=oval;html=1;rounded=0;hachureGap=4;fontFamily=Architects Daughter;fontSource=https%3A%2F%2Ffonts.googleapis.com%2Fcss%3Ffamily%3DArchitects%2BDaughter;exitX=1;exitY=0.75;exitDx=0;exitDy=0;entryX=0;entryY=0.75;entryDx=0;entryDy=0;startArrow=oval;startFill=1;endFill=1;strokeWidth=5.9055;fillColor=#f0a30a;strokeColor=#BD7000;" parent="1" edge="1">
          <mxGeometry width="50" height="50" relative="1" as="geometry">
            <mxPoint x="260" y="224.64" as="sourcePoint" />
            <mxPoint x="500" y="224.64" as="targetPoint" />
          </mxGeometry>
        </mxCell>
        <mxCell id="YS-uZJQG7iNcBauW46sK-39" value="" style="endArrow=oval;html=1;rounded=0;hachureGap=4;fontFamily=Architects Daughter;fontSource=https%3A%2F%2Ffonts.googleapis.com%2Fcss%3Ffamily%3DArchitects%2BDaughter;startArrow=oval;startFill=1;endFill=1;strokeWidth=5.9055;fillColor=#008a00;strokeColor=#005700;exitX=1;exitY=0.25;exitDx=0;exitDy=0;entryX=0;entryY=0.25;entryDx=0;entryDy=0;" parent="1" edge="1">
          <mxGeometry width="50" height="50" relative="1" as="geometry">
            <mxPoint x="260" y="104.64" as="sourcePoint" />
            <mxPoint x="500" y="104.64" as="targetPoint" />
          </mxGeometry>
        </mxCell>
        <mxCell id="YS-uZJQG7iNcBauW46sK-43" style="edgeStyle=orthogonalEdgeStyle;rounded=0;hachureGap=4;orthogonalLoop=1;jettySize=auto;html=1;fontFamily=Architects Daughter;fontSource=https%3A%2F%2Ffonts.googleapis.com%2Fcss%3Ffamily%3DArchitects%2BDaughter;endArrow=none;startFill=0;strokeWidth=1.9685;fillColor=#0050ef;strokeColor=#001DBC;dashed=1;dashPattern=1 1;entryX=0.5;entryY=1;entryDx=0;entryDy=0;" parent="1" source="YS-uZJQG7iNcBauW46sK-42" target="YS-uZJQG7iNcBauW46sK-37" edge="1">
          <mxGeometry relative="1" as="geometry">
            <mxPoint x="440" y="-10" as="targetPoint" />
          </mxGeometry>
        </mxCell>
        <mxCell id="YS-uZJQG7iNcBauW46sK-44" style="edgeStyle=orthogonalEdgeStyle;rounded=0;hachureGap=4;orthogonalLoop=1;jettySize=auto;html=1;fontFamily=Architects Daughter;fontSource=https%3A%2F%2Ffonts.googleapis.com%2Fcss%3Ffamily%3DArchitects%2BDaughter;endArrow=none;startFill=0;strokeWidth=1.9685;fillColor=#0050ef;strokeColor=#001DBC;dashed=1;dashPattern=1 1;entryX=0.5;entryY=0;entryDx=0;entryDy=0;" parent="1" source="YS-uZJQG7iNcBauW46sK-42" target="YS-uZJQG7iNcBauW46sK-36" edge="1">
          <mxGeometry relative="1" as="geometry">
            <mxPoint x="320" y="-60" as="targetPoint" />
          </mxGeometry>
        </mxCell>
        <mxCell id="YS-uZJQG7iNcBauW46sK-42" value="Cross-Pattern Integration" style="rounded=0;whiteSpace=wrap;html=1;hachureGap=4;fontFamily=Architects Daughter;fontSource=https%3A%2F%2Ffonts.googleapis.com%2Fcss%3Ffamily%3DArchitects%2BDaughter;strokeWidth=1.9685;fontSize=17;fillColor=#0050ef;strokeColor=#001DBC;fontColor=#ffffff;" parent="1" vertex="1">
          <mxGeometry x="330" y="133" width="120" height="60" as="geometry" />
        </mxCell>
        <mxCell id="YS-uZJQG7iNcBauW46sK-37" value="Process Integration" style="rounded=0;whiteSpace=wrap;html=1;hachureGap=4;fontFamily=Architects Daughter;fontSource=https%3A%2F%2Ffonts.googleapis.com%2Fcss%3Ffamily%3DArchitects%2BDaughter;strokeWidth=1.9685;fontSize=17;fillColor=#008a00;strokeColor=#005700;fontColor=#ffffff;" parent="1" vertex="1">
          <mxGeometry x="330" y="60.75" width="120" height="60" as="geometry" />
        </mxCell>
        <mxCell id="YS-uZJQG7iNcBauW46sK-36" value="Data Integration" style="rounded=0;whiteSpace=wrap;html=1;hachureGap=4;fontFamily=Architects Daughter;fontSource=https%3A%2F%2Ffonts.googleapis.com%2Fcss%3Ffamily%3DArchitects%2BDaughter;strokeWidth=1.9685;fontSize=17;shadow=1;fillColor=#f0a30a;strokeColor=#BD7000;fontColor=#FFFFFF;" parent="1" vertex="1">
          <mxGeometry x="330" y="205" width="120" height="60" as="geometry" />
        </mxCell>
      </root>
    </mxGraphModel>
  </diagram>
</mxfile>
